<svg xmlns="http://www.w3.org/2000/svg" width="1600" height="900" viewBox="0 0 1600 900" role="img" aria-labelledby="title desc"><title id="title">C1 · Контекст системы MVP</title><desc id="desc">Аналитик и оператор; корпоративные зависимости вне границы приложения</desc><defs><marker id="arrow" markerWidth="10" markerHeight="10" refX="8" refY="5" orient="auto"><path d="M1 1L8 5L1 9Z" fill="#315CCB"/></marker></defs><g font-family="Arial, sans-serif"><rect width="1600" height="900" fill="#F6F8FC"/><text x="72" y="64" font-size="18" fill="#315CCB" font-weight="700">ЦЕЛЕВАЯ АРХИТЕКТУРА MVP  /  IMPACT ASSISTANT</text><text x="72" y="139" font-size="46" fill="#17263D" font-weight="700">C1 · Контекст системы MVP</text><text x="72" y="189" font-size="25" fill="#566983" font-weight="400">Аналитик и оператор; корпоративные зависимости вне границы приложения</text><rect x="72" y="280" width="310" height="132" rx="12" fill="#FFFFFF" stroke="#D6E0ED" stroke-width="2"/><text x="90" y="304" font-size="15" fill="#315CCB" font-weight="700">PERSON</text><text x="90" y="333" font-size="24" fill="#17263D" font-weight="700">Аналитик</text><text x="90" y="360" font-size="19" fill="#566983" font-weight="400">Готовит изменение</text><text x="90" y="385" font-size="19" fill="#566983" font-weight="400">и оценивает отчёт</text><rect x="72" y="495" width="310" height="132" rx="12" fill="#FFFFFF" stroke="#D6E0ED" stroke-width="2"/><text x="90" y="519" font-size="15" fill="#315CCB" font-weight="700">PERSON</text><text x="90" y="548" font-size="24" fill="#17263D" font-weight="700">Оператор</text><text x="90" y="575" font-size="19" fill="#566983" font-weight="400">Управляет знаниями</text><text x="90" y="600" font-size="19" fill="#566983" font-weight="400">и диагностирует состояние</text><rect x="560" y="366" width="414" height="168" rx="12" fill="#FFFFFF" stroke="#D6E0ED" stroke-width="2"/><text x="578" y="390" font-size="15" fill="#315CCB" font-weight="700">SOFTWARE SYSTEM</text><text x="578" y="419" font-size="24" fill="#17263D" font-weight="700">Impact Assistant</text><text x="578" y="446" font-size="19" fill="#566983" font-weight="400">Подготовка и анализ изменения</text><text x="578" y="471" font-size="19" fill="#566983" font-weight="400">Разрешённые знания и отчёты</text><rect x="1210" y="233" width="318" height="108" rx="12" fill="#FFFFFF" stroke="#D6E0ED" stroke-width="2"/><text x="1228" y="257" font-size="15" fill="#315CCB" font-weight="700">EXTERNAL SYSTEM</text><text x="1228" y="286" font-size="24" fill="#17263D" font-weight="700">IAM / Keycloak</text><text x="1228" y="313" font-size="19" fill="#566983" font-weight="400">Идентичность и полномочия</text><rect x="1210" y="366" width="318" height="108" rx="12" fill="#FFFFFF" stroke="#D6E0ED" stroke-width="2"/><text x="1228" y="390" font-size="15" fill="#315CCB" font-weight="700">EXTERNAL SYSTEM</text><text x="1228" y="419" font-size="24" fill="#17263D" font-weight="700">Общий S3</text><text x="1228" y="446" font-size="19" fill="#566983" font-weight="400">Выгрузки и артефакты</text><rect x="1210" y="499" width="318" height="108" rx="12" fill="#FFFFFF" stroke="#D6E0ED" stroke-width="2"/><text x="1228" y="523" font-size="15" fill="#315CCB" font-weight="700">EXTERNAL SYSTEM</text><text x="1228" y="552" font-size="24" fill="#17263D" font-weight="700">GPUStack</text><text x="1228" y="579" font-size="19" fill="#566983" font-weight="400">Генерация и эмбеддинги</text><rect x="1210" y="632" width="318" height="108" rx="12" fill="#FFFFFF" stroke="#D6E0ED" stroke-width="2"/><text x="1228" y="656" font-size="15" fill="#315CCB" font-weight="700">EXTERNAL SYSTEM</text><text x="1228" y="685" font-size="24" fill="#17263D" font-weight="700">Vault</text><text x="1228" y="712" font-size="19" fill="#566983" font-weight="400">Служебные секреты</text><path d="M382 345H452V400H560" fill="none" stroke="#315CCB" stroke-width="3" marker-end="url(#arrow)"/><text x="410" y="328" font-size="21" fill="#315CCB" font-weight="600">анализ</text><path d="M382 558H452V505H560" fill="none" stroke="#315CCB" stroke-width="3" marker-end="url(#arrow)"/><text x="402" y="588" font-size="21" fill="#315CCB" font-weight="600">знания</text><path d="M974 390H1040V287H1210" fill="none" stroke="#315CCB" stroke-width="3" marker-end="url(#arrow)"/><text x="1075" y="275" font-size="21" fill="#315CCB" font-weight="600">токены</text><path d="M974 430H1100V420H1210" fill="none" stroke="#315CCB" stroke-width="3" marker-end="url(#arrow)"/><text x="1000" y="413" font-size="21" fill="#315CCB" font-weight="600">артефакты</text><path d="M974 470H1100V553H1210" fill="none" stroke="#315CCB" stroke-width="3" marker-end="url(#arrow)"/><text x="1117" y="536" font-size="21" fill="#315CCB" font-weight="600">модели</text><path d="M974 510H1040V686H1210" fill="none" stroke="#315CCB" stroke-width="3" marker-end="url(#arrow)"/><text x="1075" y="671" font-size="21" fill="#315CCB" font-weight="600">секреты</text><text x="72" y="710" font-size="25" fill="#566983" font-weight="400">Исходники поступают из корпоративного бакета S3.</text><text x="72" y="747" font-size="25" fill="#566983" font-weight="400">Оператор использует также корпоративную наблюдаемость (слайд 16).</text><text x="72" y="820" font-size="23" fill="#566983" font-weight="400">Приложение проверяет права через IAM; ключи служебных подключений получает из Vault.</text><path d="M72 850h1456" stroke="#D6E0ED" stroke-width="2"/><text x="72" y="882" font-size="17" fill="#566983" font-weight="400">OTUS · AI Architect   |   Решение</text><text x="1430" y="882" font-size="17" fill="#566983" font-weight="400">04 / 26</text></g></svg>