<svg xmlns="http://www.w3.org/2000/svg" width="1600" height="900" viewBox="0 0 1600 900" role="img" aria-labelledby="title desc"><title id="title">C2 · Контейнеры прикладного контура</title><desc id="desc">MVP: API и анализ вместе; синхронизация знаний — отдельная исполняемая роль</desc><defs><marker id="arrow" markerWidth="10" markerHeight="10" refX="8" refY="5" orient="auto"><path d="M1 1L8 5L1 9Z" fill="#315CCB"/></marker></defs><g font-family="Arial, sans-serif"><rect width="1600" height="900" fill="#F6F8FC"/><text x="72" y="64" font-size="18" fill="#315CCB" font-weight="700">ЦЕЛЕВАЯ АРХИТЕКТУРА MVP  /  IMPACT ASSISTANT</text><text x="72" y="139" font-size="46" fill="#17263D" font-weight="700">C2 · Контейнеры прикладного контура</text><text x="72" y="189" font-size="25" fill="#566983" font-weight="400">MVP: API и анализ вместе; синхронизация знаний — отдельная исполняемая роль</text><rect x="72" y="225" width="1456" height="525" rx="16" fill="#EDF2FB" stroke="#D6E0ED" stroke-width="2"/><text x="94" y="258" font-size="18" fill="#315CCB" font-weight="700">SOFTWARE SYSTEM  ·  IMPACT ASSISTANT</text><rect x="103" y="365" width="365" height="150" rx="12" fill="#FFFFFF" stroke="#D6E0ED" stroke-width="2"/><text x="127" y="393" font-size="17" fill="#315CCB" font-weight="700">CONTAINER · PYTHON / FLASK</text><text x="127" y="432" font-size="27" fill="#17263D" font-weight="700">API и анализ</text><text x="127" y="464" font-size="22" fill="#566983" font-weight="400">HTTP и фоновые задания</text><text x="127" y="491" font-size="22" fill="#566983" font-weight="400">Одна единица развёртывания</text><rect x="1135" y="365" width="365" height="150" rx="12" fill="#FFFFFF" stroke="#D6E0ED" stroke-width="2"/><text x="1159" y="393" font-size="17" fill="#315CCB" font-weight="700">CONTAINER · PYTHON</text><text x="1159" y="432" font-size="27" fill="#17263D" font-weight="700">Синхронизация знаний</text><text x="1159" y="464" font-size="22" fill="#566983" font-weight="400">Получение выгрузок из S3</text><text x="1159" y="491" font-size="22" fill="#566983" font-weight="400">Сборка и активация версии</text><rect x="610" y="278" width="390" height="116" rx="12" fill="#FFFFFF" stroke="#D6E0ED" stroke-width="2"/><text x="634" y="306" font-size="17" fill="#315CCB" font-weight="700">DATA STORE · СОСТОЯНИЕ И ЗАДАНИЯ</text><text x="634" y="345" font-size="27" fill="#17263D" font-weight="700">PostgreSQL</text><rect x="610" y="436" width="390" height="116" rx="12" fill="#FFFFFF" stroke="#D6E0ED" stroke-width="2"/><text x="634" y="464" font-size="17" fill="#315CCB" font-weight="700">DATA STORE · ГРАФ ЗНАНИЙ</text><text x="634" y="503" font-size="27" fill="#17263D" font-weight="700">Neo4j</text><rect x="610" y="594" width="390" height="116" rx="12" fill="#FFFFFF" stroke="#D6E0ED" stroke-width="2"/><text x="634" y="622" font-size="17" fill="#315CCB" font-weight="700">ХРАНИЛИЩЕ MVP НЕ ВЫБРАНО</text><text x="634" y="661" font-size="27" fill="#17263D" font-weight="700">Векторный индекс</text><path d="M468 389H530V330H610" fill="none" stroke="#315CCB" stroke-width="3" marker-end="url(#arrow)"/><text x="480" y="312" font-size="21" fill="#315CCB" font-weight="600">задания</text><path d="M468 449H610" fill="none" stroke="#315CCB" stroke-width="3" marker-end="url(#arrow)"/><text x="492" y="437" font-size="21" fill="#315CCB" font-weight="600">читает</text><path d="M468 496H530V650H610" fill="none" stroke="#315CCB" stroke-width="3" marker-end="url(#arrow)"/><text x="474" y="630" font-size="21" fill="#315CCB" font-weight="600">ищет</text><path d="M1135 389H1080V330H1000" fill="none" stroke="#315CCB" stroke-width="3" marker-end="url(#arrow)"/><text x="1010" y="312" font-size="21" fill="#315CCB" font-weight="600">версия знаний</text><path d="M1135 449H1000" fill="none" stroke="#315CCB" stroke-width="3" marker-end="url(#arrow)"/><text x="1020" y="437" font-size="21" fill="#315CCB" font-weight="600">пишет</text><path d="M1135 496H1080V650H1000" fill="none" stroke="#315CCB" stroke-width="3" marker-end="url(#arrow)"/><text x="1010" y="685" font-size="21" fill="#315CCB" font-weight="600">пишет</text><text x="72" y="785" font-size="23" fill="#566983" font-weight="400">Внешние S3, GPUStack и IAM показаны на соседних схемах контекста и размещения.</text><text x="72" y="817" font-size="23" fill="#566983" font-weight="400">В POC векторы хранятся в PostgreSQL / pgvector; отдельного сервера индекса нет.</text><path d="M72 850h1456" stroke="#D6E0ED" stroke-width="2"/><text x="72" y="882" font-size="17" fill="#566983" font-weight="400">OTUS · AI Architect   |   Решение</text><text x="1430" y="882" font-size="17" fill="#566983" font-weight="400">05 / 26</text></g></svg>