<svg xmlns="http://www.w3.org/2000/svg" width="1600" height="900" viewBox="0 0 1600 900" role="img" aria-labelledby="title desc"><title id="title">C2 · Контейнеры прикладного контура</title><desc id="desc">MVP · браузерный UI и две серверные роли одного приложения</desc><defs><marker id="arrow" markerWidth="10" markerHeight="10" refX="8" refY="5" orient="auto"><path d="M1 1L8 5L1 9Z" fill="#315CCB"/></marker></defs><g font-family="Arial, sans-serif"><rect width="1600" height="900" fill="#F6F8FC"/><text x="72" y="64" font-size="18" fill="#315CCB" font-weight="700">ЦЕЛЕВАЯ АРХИТЕКТУРА MVP  /  IMPACT ASSISTANT</text><text x="72" y="139" font-size="46" fill="#17263D" font-weight="700">C2 · Контейнеры прикладного контура</text><text x="72" y="189" font-size="25" fill="#566983" font-weight="400">MVP · браузерный UI и две серверные роли одного приложения</text><rect x="72" y="218" width="1456" height="438" rx="16" fill="#EDF2FB" stroke="#D6E0ED" stroke-width="2"/><text x="94" y="245" font-size="17" fill="#315CCB" font-weight="700">SOFTWARE SYSTEM · IMPACT ASSISTANT</text><rect x="635" y="232" width="330" height="81" rx="12" fill="#FFFFFF" stroke="#D6E0ED" stroke-width="2"/><text x="653" y="256" font-size="15" fill="#315CCB" font-weight="700">CONTAINER · БРАУЗЕР</text><text x="653" y="285" font-size="24" fill="#17263D" font-weight="700">Тонкий UI</text><rect x="103" y="350" width="365" height="140" rx="12" fill="#FFFFFF" stroke="#D6E0ED" stroke-width="2"/><text x="121" y="374" font-size="15" fill="#315CCB" font-weight="700">CONTAINER · PYTHON / FLASK</text><text x="121" y="403" font-size="24" fill="#17263D" font-weight="700">API и анализ</text><text x="121" y="430" font-size="19" fill="#566983" font-weight="400">Подготовка и фоновые задания</text><text x="121" y="455" font-size="19" fill="#566983" font-weight="400">Состояния и отчёты</text><rect x="1135" y="350" width="365" height="140" rx="12" fill="#FFFFFF" stroke="#D6E0ED" stroke-width="2"/><text x="1153" y="374" font-size="15" fill="#315CCB" font-weight="700">CONTAINER · PYTHON</text><text x="1153" y="403" font-size="24" fill="#17263D" font-weight="700">Синхронизация знаний</text><text x="1153" y="430" font-size="19" fill="#566983" font-weight="400">Служебный API и сборка</text><text x="1153" y="455" font-size="19" fill="#566983" font-weight="400">Циклы и активация версии</text><rect x="610" y="333" width="390" height="86" rx="12" fill="#FFFFFF" stroke="#D6E0ED" stroke-width="2"/><text x="628" y="357" font-size="15" fill="#315CCB" font-weight="700">DATA STORE · ЗАДАНИЯ И ВЕРСИИ</text><text x="628" y="386" font-size="24" fill="#17263D" font-weight="700">PostgreSQL</text><rect x="610" y="439" width="390" height="86" rx="12" fill="#FFFFFF" stroke="#D6E0ED" stroke-width="2"/><text x="628" y="463" font-size="15" fill="#315CCB" font-weight="700">DATA STORE · ГРАФ ЗНАНИЙ</text><text x="628" y="492" font-size="24" fill="#17263D" font-weight="700">Neo4j</text><rect x="610" y="545" width="390" height="86" rx="12" fill="#FFFFFF" stroke="#D6E0ED" stroke-width="2"/><text x="628" y="569" font-size="15" fill="#315CCB" font-weight="700">DATA STORE · ТЕХНОЛОГИЯ ПОЗЖЕ</text><text x="628" y="598" font-size="24" fill="#17263D" font-weight="700">Векторный индекс</text><path d="M635 281H285V350" fill="none" stroke="#315CCB" stroke-width="3" marker-end="url(#arrow)"/><text x="407" y="268" font-size="21" fill="#315CCB" font-weight="600">анализы</text><path d="M965 281H1315V350" fill="none" stroke="#315CCB" stroke-width="3" marker-end="url(#arrow)"/><text x="1032" y="267" font-size="21" fill="#315CCB" font-weight="600">циклы знаний</text><path d="M468 374H610" fill="none" stroke="#315CCB" stroke-width="3" marker-end="url(#arrow)"/><text x="484" y="361" font-size="21" fill="#315CCB" font-weight="600">задания</text><path d="M468 431H528V478H610" fill="none" stroke="#315CCB" stroke-width="3" marker-end="url(#arrow)"/><text x="545" y="466" font-size="21" fill="#315CCB" font-weight="600">читает</text><path d="M468 467H502V588H610" fill="none" stroke="#315CCB" stroke-width="3" marker-end="url(#arrow)"/><text x="535" y="575" font-size="21" fill="#315CCB" font-weight="600">ищет</text><path d="M1135 374H1000" fill="none" stroke="#315CCB" stroke-width="3" marker-end="url(#arrow)"/><text x="1028" y="361" font-size="21" fill="#315CCB" font-weight="600">циклы</text><path d="M1135 431H1082V478H1000" fill="none" stroke="#315CCB" stroke-width="3" marker-end="url(#arrow)"/><text x="1013" y="466" font-size="21" fill="#315CCB" font-weight="600">граф</text><path d="M1135 467H1108V588H1000" fill="none" stroke="#315CCB" stroke-width="3" marker-end="url(#arrow)"/><text x="1010" y="575" font-size="21" fill="#315CCB" font-weight="600">векторы</text><text x="72" y="692" font-size="23" fill="#566983" font-weight="600">Общие внешние зависимости API и синхронизации:</text><rect x="72" y="709" width="342" height="93" rx="12" fill="#FFFFFF" stroke="#D6E0ED" stroke-width="2"/><text x="90" y="733" font-size="15" fill="#315CCB" font-weight="700">EXTERNAL SYSTEM</text><text x="90" y="762" font-size="24" fill="#17263D" font-weight="700">IAM / Keycloak</text><text x="90" y="789" font-size="19" fill="#566983" font-weight="400">Проверка доступа</text><rect x="440" y="709" width="342" height="93" rx="12" fill="#FFFFFF" stroke="#D6E0ED" stroke-width="2"/><text x="458" y="733" font-size="15" fill="#315CCB" font-weight="700">EXTERNAL SYSTEM</text><text x="458" y="762" font-size="24" fill="#17263D" font-weight="700">Общий S3</text><text x="458" y="789" font-size="19" fill="#566983" font-weight="400">Источники и артефакты</text><rect x="808" y="709" width="342" height="93" rx="12" fill="#FFFFFF" stroke="#D6E0ED" stroke-width="2"/><text x="826" y="733" font-size="15" fill="#315CCB" font-weight="700">EXTERNAL SYSTEM</text><text x="826" y="762" font-size="24" fill="#17263D" font-weight="700">GPUStack</text><text x="826" y="789" font-size="19" fill="#566983" font-weight="400">Модельные операции</text><rect x="1176" y="709" width="352" height="93" rx="12" fill="#FFFFFF" stroke="#D6E0ED" stroke-width="2"/><text x="1194" y="733" font-size="15" fill="#315CCB" font-weight="700">EXTERNAL SYSTEM</text><text x="1194" y="762" font-size="24" fill="#17263D" font-weight="700">Vault</text><text x="1194" y="789" font-size="19" fill="#566983" font-weight="400">Секреты каждой роли</text><text x="72" y="832" font-size="20" fill="#566983" font-weight="400">UI входит через IAM. Внешние связи перечислены общей строкой; полный C2 сохранён в репозитории.</text><path d="M72 850h1456" stroke="#D6E0ED" stroke-width="2"/><text x="72" y="882" font-size="17" fill="#566983" font-weight="400">OTUS · AI Architect   |   Решение</text><text x="1430" y="882" font-size="17" fill="#566983" font-weight="400">05 / 26</text></g></svg>