<svg xmlns="http://www.w3.org/2000/svg" width="1600" height="900" viewBox="0 0 1600 900" role="img" aria-labelledby="title desc"><title id="title">DFD · Подготовка знаний</title><desc id="desc">Первый уровень · целевой MVP · процесс 1.0</desc><defs><marker id="arrow" markerWidth="10" markerHeight="10" refX="8" refY="5" orient="auto"><path d="M1 1L8 5L1 9Z" fill="#315CCB"/></marker></defs><g font-family="Arial, sans-serif"><rect width="1600" height="900" fill="#F6F8FC"/><text x="72" y="64" font-size="18" fill="#315CCB" font-weight="700">ВСПОМОГАТЕЛЬНЫЕ СЛАЙДЫ  /  IMPACT ASSISTANT</text><text x="72" y="139" font-size="46" fill="#17263D" font-weight="700">DFD · Подготовка знаний</text><text x="72" y="189" font-size="25" fill="#566983" font-weight="400">Первый уровень · целевой MVP · процесс 1.0</text><rect x="72" y="320" width="280" height="124" rx="0" fill="#FFFFFF" stroke="#D6E0ED" stroke-width="2"/><text x="90" y="346" font-size="17" fill="#566983" font-weight="700">E1 · ВНЕШНИЙ ИСТОЧНИК</text><text x="90" y="380" font-size="23" fill="#17263D" font-weight="700">Область выгрузок S3</text><text x="90" y="409" font-size="18" fill="#566983" font-weight="400">Код, контракты, конфигурации</text><rect x="72" y="576" width="280" height="145" rx="0" fill="#FFFFFF" stroke="#D6E0ED" stroke-width="2"/><text x="90" y="602" font-size="17" fill="#566983" font-weight="700">E3 · ВНЕШНЯЯ СИСТЕМА</text><text x="90" y="636" font-size="23" fill="#17263D" font-weight="700">GPUStack</text><text x="90" y="665" font-size="18" fill="#566983" font-weight="400">Модель эмбеддингов</text><rect x="625" y="280" width="345" height="455" rx="24" fill="#E9F4F4" stroke="#087F86" stroke-width="2"/><text x="650" y="385" font-size="27" fill="#087F86" font-weight="700">1.0</text><text x="650" y="438" font-size="27" fill="#17263D" font-weight="700">Подготовить</text><text x="650" y="475" font-size="27" fill="#17263D" font-weight="700">и активировать</text><text x="650" y="512" font-size="27" fill="#17263D" font-weight="700">версию знаний</text><text x="650" y="560" font-size="21" fill="#566983" font-weight="400">Разбор и нормализация</text><text x="650" y="592" font-size="21" fill="#566983" font-weight="400">Граф и фрагменты</text><text x="650" y="624" font-size="21" fill="#566983" font-weight="400">Эмбеддинги и проверка</text><path d="M1200 285h328" stroke="#087F86" stroke-width="2"/><path d="M1200 375h328" stroke="#087F86" stroke-width="2"/><path d="M1250 285V375" stroke="#087F86" stroke-width="2"/><text x="1210" y="337" font-size="20" fill="#087F86" font-weight="700">D1</text><text x="1266" y="317" font-size="22" fill="#17263D" font-weight="700">Каталог версий</text><text x="1266" y="346" font-size="18" fill="#566983" font-weight="400">PostgreSQL</text><path d="M1200 405h328" stroke="#087F86" stroke-width="2"/><path d="M1200 495h328" stroke="#087F86" stroke-width="2"/><path d="M1250 405V495" stroke="#087F86" stroke-width="2"/><text x="1210" y="457" font-size="20" fill="#087F86" font-weight="700">D2</text><text x="1266" y="437" font-size="22" fill="#17263D" font-weight="700">Граф знаний</text><text x="1266" y="466" font-size="18" fill="#566983" font-weight="400">Neo4j</text><path d="M1200 525h328" stroke="#087F86" stroke-width="2"/><path d="M1200 615h328" stroke="#087F86" stroke-width="2"/><path d="M1250 525V615" stroke="#087F86" stroke-width="2"/><text x="1210" y="577" font-size="20" fill="#087F86" font-weight="700">D3</text><text x="1266" y="557" font-size="22" fill="#17263D" font-weight="700">Векторный индекс</text><text x="1266" y="586" font-size="18" fill="#566983" font-weight="400">Выбор MVP позже</text><path d="M1200 645h328" stroke="#087F86" stroke-width="2"/><path d="M1200 735h328" stroke="#087F86" stroke-width="2"/><path d="M1250 645V735" stroke="#087F86" stroke-width="2"/><text x="1210" y="697" font-size="20" fill="#087F86" font-weight="700">D4</text><text x="1266" y="677" font-size="22" fill="#17263D" font-weight="700">Артефакты, отчёты</text><text x="1266" y="706" font-size="18" fill="#566983" font-weight="400">Общий S3</text><path d="M352 375H625" fill="none" stroke="#315CCB" stroke-width="2.5" marker-end="url(#arrow)"/><text x="488.5" y="341" font-size="19" fill="#315CCB" text-anchor="middle">Выгрузки, ревизии,</text><text x="488.5" y="363" font-size="19" fill="#315CCB" text-anchor="middle">метки доступа</text><path d="M625 620H352" fill="none" stroke="#315CCB" stroke-width="2.5" marker-end="url(#arrow)"/><text x="488.5" y="608" font-size="19" fill="#315CCB" text-anchor="middle">Тексты фрагментов</text><path d="M352 686H625" fill="none" stroke="#315CCB" stroke-width="2.5" marker-end="url(#arrow)"/><text x="488.5" y="674" font-size="19" fill="#315CCB" text-anchor="middle">Эмбеддинги</text><path d="M970 330H1200" fill="none" stroke="#315CCB" stroke-width="2.5" marker-end="url(#arrow)"/><text x="1085" y="296" font-size="19" fill="#315CCB" text-anchor="middle">Версия и</text><text x="1085" y="318" font-size="19" fill="#315CCB" text-anchor="middle">активный указатель</text><path d="M970 450H1200" fill="none" stroke="#315CCB" stroke-width="2.5" marker-end="url(#arrow)"/><text x="1085" y="416" font-size="19" fill="#315CCB" text-anchor="middle">Сущности, связи,</text><text x="1085" y="438" font-size="19" fill="#315CCB" text-anchor="middle">подтверждения</text><path d="M970 570H1200" fill="none" stroke="#315CCB" stroke-width="2.5" marker-end="url(#arrow)"/><text x="1085" y="536" font-size="19" fill="#315CCB" text-anchor="middle">Векторы и ссылки</text><text x="1085" y="558" font-size="19" fill="#315CCB" text-anchor="middle">на фрагменты</text><path d="M970 690H1200" fill="none" stroke="#315CCB" stroke-width="2.5" marker-end="url(#arrow)"/><text x="1085" y="656" font-size="19" fill="#315CCB" text-anchor="middle">Исходники, части,</text><text x="1085" y="678" font-size="19" fill="#315CCB" text-anchor="middle">манифест</text><text x="72" y="783" font-size="23" fill="#566983" font-weight="400">Стрелки — данные; скруглённый блок — процесс; две линии — хранилище.</text><text x="72" y="815" font-size="23" fill="#566983" font-weight="400">E1 и D4 — разные области общего S3. D1–D4 продолжаются на следующей DFD.</text><path d="M72 850h1456" stroke="#D6E0ED" stroke-width="2"/><text x="72" y="882" font-size="17" fill="#566983" font-weight="400">OTUS · AI Architect   |   Подробности</text><text x="1430" y="882" font-size="17" fill="#566983" font-weight="400">20 / 22</text></g></svg>